<?xml version="1.0" encoding="UTF-8" standalone="no"?>
<!-- Generator: Adobe Illustrator 26.4.1, SVG Export Plug-In . SVG Version: 6.00 Build 0)  -->

<svg
   version="1.1"
   id="Layer_1"
   x="0px"
   y="0px"
   viewBox="0 0 635.11699 419.60001"
   xml:space="preserve"
   sodipodi:docname="logo.svg"
   width="635.117"
   height="419.60001"
   inkscape:version="1.4.2 (f4327f4, 2025-05-13)"
   xmlns:inkscape="http://www.inkscape.org/namespaces/inkscape"
   xmlns:sodipodi="http://sodipodi.sourceforge.net/DTD/sodipodi-0.dtd"
   xmlns="http://www.w3.org/2000/svg"
   xmlns:svg="http://www.w3.org/2000/svg"><defs
   id="defs1" /><sodipodi:namedview
   id="namedview1"
   pagecolor="#ffffff"
   bordercolor="#000000"
   borderopacity="0.25"
   inkscape:showpageshadow="2"
   inkscape:pageopacity="0.0"
   inkscape:pagecheckerboard="true"
   inkscape:deskcolor="#d1d1d1"
   showborder="true"
   inkscape:zoom="0.69309057"
   inkscape:cx="349.88212"
   inkscape:cy="243.11397"
   inkscape:window-width="1419"
   inkscape:window-height="1115"
   inkscape:window-x="935"
   inkscape:window-y="108"
   inkscape:window-maximized="0"
   inkscape:current-layer="Layer_1" />
<style
   type="text/css"
   id="style1">
	.st0{fill:#FFFFFF;}
</style>
<path
   class="st0"
   d="m 51.658489,20.2 c -2.499999,0 -4.199999,-2.4 -3.499999,-4.7 0.5,-1.6 1.9,-2.7 3.499999,-2.7 h 15.9 c 11.6,0 23.6,-3.1 35.500001,-6.1 6.7,-1.7 13.3,-3.4 19.8,-4.5 8.3,-1.4 17.8,-2.2 28.1,-2.2 0.9,0 1.7,0 2.6,0 16.8,0.2 34.5,3.3 52.1,6.4 18.4,3.2 36.8,6.4 54.3,6.4 h 115.7 c 17.5,0 35.9,-3.2 54.3,-6.4 17.6,-3.1 35.3,-6.2 52.1,-6.4 0.9,0 1.7,0 2.6,0 10.3,0 19.9,0.8 28.1,2.3 6.5,1.1 13.1,2.8 19.8,4.5 11.8,3 23.8,6.1 35.4,6.1 h 15.6 c 1.6,0 3.1,1.1 3.5,2.7 0.7,2.4 -1.1,4.7 -3.5,4.7 h -15.6 c -11.6,0 -23.6,3.1 -35.4,6.1 -6.7,1.7 -13.3,3.4 -19.8,4.5 -8.3,1.4 -17.9,2.3 -28.1,2.3 -0.9,0 -1.7,0 -2.6,0 -16.8,-0.2 -34.5,-3.3 -52.1,-6.4 -18.4,-3.2 -36.7,-6.4 -54.3,-6.4 h -115.8 c -17.5,0 -35.9,3.2 -54.3,6.4 -17.6,3.1 -35.3,6.2 -52.1,6.4 -0.9,0 -1.7,0 -2.6,0 -10.2,0 -19.8,-0.8 -28.1,-2.2 -6.5,-1.1 -13.1,-2.8 -19.8,-4.5 -11.800001,-3 -23.800001,-6.1 -35.500001,-6.1 h -15.8 z M 35.65849,75.4 c -2.4,0 -4.2,-2.4 -3.5,-4.7 0.5,-1.6 1.9,-2.7 3.5,-2.7 h 31.899999 c 11.6,0 23.6,-3.1 35.500001,-6.1 6.7,-1.7 13.3,-3.4 19.8,-4.5 8.3,-1.4 17.8,-2.2 28.1,-2.2 0.9,0 1.7,0 2.6,0 16.8,0.2 34.5,3.3 52.1,6.4 18.4,3.2 36.8,6.4 54.3,6.4 h 115.7 c 17.5,0 35.9,-3.2 54.3,-6.4 17.6,-3.1 35.3,-6.2 52.1,-6.4 0.9,0 1.7,0 2.6,0 10.3,0 19.9,0.8 28.1,2.3 6.5,1.1 13.1,2.8 19.8,4.5 11.8,3 23.8,6.1 35.4,6.1 h 31.6 c 1.6,0 3.1,1.1 3.5,2.7 0.7,2.4 -1.1,4.7 -3.5,4.7 h -31.6 c -11.6,0 -23.6,3.1 -35.4,6.1 -6.7,1.7 -13.3,3.4 -19.8,4.5 -8.3,1.4 -17.9,2.3 -28.1,2.3 -0.9,0 -1.7,0 -2.6,0 -16.8,-0.2 -34.5,-3.3 -52.1,-6.4 -18.4,-3.2 -36.7,-6.4 -54.3,-6.4 h -115.8 c -17.5,0 -35.9,3.2 -54.3,6.4 -17.6,3.1 -35.3,6.2 -52.1,6.4 -0.9,0 -1.7,0 -2.6,0 -10.2,0 -19.8,-0.8 -28.1,-2.2 -6.5,-1.1 -13.1,-2.8 -19.8,-4.5 -11.800001,-3 -23.800001,-6.1 -35.500001,-6.1 H 35.65849 Z m -16,55.2 c -2.5,0 -4.2,-2.4 -3.5,-4.7 0.5,-1.6 1.9,-2.7 3.5,-2.7 h 47.899999 c 11.6,0 23.6,-3.1 35.500001,-6.1 v 0 c 6.7,-1.7 13.3,-3.4 19.8,-4.5 8.3,-1.4 17.8,-2.2 28.1,-2.2 0.9,0 1.7,0 2.6,0 16.8,0.2 34.5,3.3 52.1,6.4 18.4,3.2 36.7,6.4 54.3,6.4 h 115.7 c 17.5,0 35.9,-3.2 54.3,-6.4 17.6,-3.1 35.3,-6.2 52.1,-6.4 0.9,0 1.7,0 2.6,0 10.3,0 19.9,0.8 28.1,2.3 6.5,1.1 13.1,2.8 19.8,4.5 11.8,3 23.8,6.1 35.4,6.1 h 47.6 c 1.6,0 3.1,1.1 3.5,2.7 0.7,2.4 -1.1,4.7 -3.5,4.7 h -47.6 c -11.6,0 -23.6,3.1 -35.4,6.1 -6.7,1.7 -13.3,3.4 -19.8,4.5 -8.3,1.4 -17.9,2.3 -28.1,2.3 -0.9,0 -1.7,0 -2.6,0 -16.8,-0.2 -34.5,-3.3 -52.1,-6.4 -18.4,-3.2 -36.7,-6.4 -54.3,-6.4 h -115.8 c -17.5,0 -35.9,3.2 -54.3,6.4 -17.6,3.1 -35.3,6.2 -52.1,6.4 -0.9,0 -1.7,0 -2.6,0 -10.2,0 -19.8,-0.8 -28.1,-2.2 -6.5,-1.1 -13.1,-2.8 -19.8,-4.5 -11.800001,-3 -23.800001,-6.1 -35.500001,-6.1 H 19.65849 Z M 3.6584891,185.8 c -2.5,0 -4.20000014,-2.4 -3.50000014,-4.7 0.5,-1.6 1.90000014,-2.7 3.50000014,-2.7 H 52.958489 c 9.1,0 18.2,-1.5 27.1,-3 0.7,-0.1 1.5,-0.2 2.2,-0.4 33.600001,-5.6 111.400001,-9.5 235.400001,-9.5 124,0 201.8,3.9 235.4,9.5 0.7,0.1 1.4,0.2 2.2,0.4 v 0 c 9,1.5 18,3 27.1,3 h 49.1 c 1.6,0 3.1,1.1 3.5,2.7 0.7,2.4 -1.1,4.7 -3.5,4.7 h -49.1 c -9.1,0 -18.2,1.5 -27.1,3 -0.7,0.1 -1.5,0.2 -2.2,0.4 -33.6,5.6 -111.4,9.5 -235.4,9.5 -124,0 -201.8,-3.9 -235.400001,-9.5 -0.7,-0.1 -1.5,-0.2 -2.2,-0.4 -9,-1.5 -18,-3 -27.1,-3 z m 0,55.2 c -1.6,0 -3.10000014,-1.1 -3.50000014,-2.7 -0.7,-2.4 1.10000014,-4.7 3.50000014,-4.7 H 52.958489 c 9.1,0 18.2,-1.5 27.1,-3 v 0 c 0.7,-0.1 1.5,-0.2 2.2,-0.4 33.600001,-5.6 111.400001,-9.5 235.400001,-9.5 124,0 201.8,3.9 235.4,9.5 0.7,0.1 1.5,0.2 2.2,0.4 9,1.5 18,3 27.1,3 h 49.1 c 2.5,0 4.2,2.3 3.5,4.7 -0.5,1.6 -1.9,2.7 -3.5,2.7 h -49.1 c -9.1,0 -18.2,1.5 -27.1,3 -0.7,0.1 -1.5,0.2 -2.2,0.4 -33.6,5.6 -111.4,9.5 -235.4,9.5 -124,0 -201.8,-3.9 -235.400001,-9.5 -0.7,-0.1 -1.5,-0.2 -2.2,-0.4 -9,-1.5 -18,-3 -27.1,-3 z M 19.65849,296.2 c -1.6,0 -3.1,-1.1 -3.5,-2.7 -0.7,-2.4 1.1,-4.7 3.5,-4.7 h 47.899999 c 11.6,0 23.6,-3.1 35.500001,-6.1 v 0 c 6.7,-1.7 13.3,-3.4 19.8,-4.5 8.3,-1.4 17.8,-2.2 28.1,-2.2 0.9,0 1.7,0 2.6,0 16.8,0.2 34.5,3.3 52.1,6.4 18.4,3.2 36.8,6.4 54.3,6.4 h 115.7 c 17.5,0 35.9,-3.2 54.3,-6.4 17.6,-3.1 35.3,-6.2 52.1,-6.4 0.9,0 1.7,0 2.6,0 10.3,0 19.9,0.8 28.1,2.3 6.5,1.1 13.1,2.8 19.8,4.5 11.8,3 23.8,6.1 35.4,6.1 h 47.6 c 2.5,0 4.2,2.3 3.5,4.7 -0.5,1.6 -1.9,2.7 -3.5,2.7 h -47.6 c -11.6,0 -23.6,3.1 -35.4,6.1 -6.7,1.7 -13.3,3.4 -19.8,4.5 -8.3,1.4 -17.9,2.3 -28.1,2.3 -0.9,0 -1.7,0 -2.6,0 -16.8,-0.2 -34.5,-3.3 -52.1,-6.4 -18.4,-3.2 -36.7,-6.4 -54.3,-6.4 h -115.8 c -17.5,0 -35.9,3.2 -54.3,6.4 -17.6,3.1 -35.3,6.2 -52.1,6.4 -0.9,0 -1.7,0 -2.6,0 -10.2,0 -19.8,-0.8 -28.1,-2.2 -6.5,-1.1 -13.1,-2.8 -19.8,-4.5 -11.800001,-3 -23.800001,-6.1 -35.500001,-6.1 H 19.65849 Z m 16,55.2 c -1.6,0 -3.1,-1.1 -3.5,-2.7 -0.7,-2.4 1.1,-4.7 3.5,-4.7 h 31.899999 c 11.6,0 23.6,-3.1 35.500001,-6.1 v 0 c 6.7,-1.7 13.3,-3.4 19.8,-4.5 8.3,-1.4 17.8,-2.2 28.1,-2.2 0.9,0 1.7,0 2.6,0 16.8,0.2 34.5,3.3 52.1,6.4 18.4,3.2 36.8,6.4 54.3,6.4 h 115.7 c 17.5,0 35.9,-3.2 54.3,-6.4 17.6,-3.1 35.3,-6.2 52.1,-6.4 0.9,0 1.7,0 2.6,0 10.3,0 19.9,0.8 28.1,2.3 6.5,1.1 13.1,2.8 19.8,4.5 11.8,3 23.8,6.1 35.4,6.1 h 31.6 c 2.5,0 4.2,2.3 3.5,4.7 -0.5,1.6 -1.9,2.7 -3.5,2.7 h -31.6 c -11.6,0 -23.6,3.1 -35.4,6.1 -6.7,1.7 -13.3,3.4 -19.8,4.5 -8.3,1.4 -17.9,2.3 -28.1,2.3 -0.9,0 -1.7,0 -2.6,0 -16.8,-0.2 -34.5,-3.3 -52.1,-6.4 -18.4,-3.2 -36.7,-6.4 -54.3,-6.4 h -115.8 c -17.5,0 -35.9,3.2 -54.3,6.4 -17.6,3.1 -35.3,6.2 -52.1,6.4 -0.9,0 -1.7,0 -2.6,0 -10.2,0 -19.8,-0.8 -28.1,-2.2 -6.5,-1.1 -13.1,-2.8 -19.8,-4.5 -11.800001,-3 -23.800001,-6.1 -35.500001,-6.1 H 35.65849 Z m 15.999999,55.2 c -1.599999,0 -3.099999,-1.1 -3.499999,-2.7 -0.7,-2.4 1.1,-4.7 3.499999,-4.7 h 15.9 c 11.6,0 23.6,-3.1 35.500001,-6.1 6.7,-1.7 13.3,-3.4 19.8,-4.5 8.3,-1.4 17.8,-2.2 28.1,-2.2 0.9,0 1.7,0 2.6,0 16.8,0.2 34.5,3.3 52.1,6.4 18.4,3.2 36.7,6.4 54.3,6.4 h 115.7 c 17.5,0 35.9,-3.2 54.3,-6.4 17.6,-3.1 35.3,-6.2 52.1,-6.4 0.9,0 1.7,0 2.6,0 10.3,0 19.9,0.8 28.1,2.3 6.5,1.1 13.1,2.8 19.8,4.5 11.8,3 23.8,6.1 35.4,6.1 h 15.6 c 2.4,0 4.2,2.3 3.5,4.7 -0.5,1.6 -1.9,2.7 -3.5,2.7 h -15.6 c -11.6,0 -23.6,3.1 -35.4,6.1 -6.7,1.7 -13.3,3.4 -19.8,4.5 -8.3,1.4 -17.9,2.3 -28.1,2.3 -0.9,0 -1.7,0 -2.6,0 -16.8,-0.2 -34.5,-3.3 -52.1,-6.4 -18.4,-3.2 -36.7,-6.4 -54.3,-6.4 h -115.8 c -17.5,0 -35.9,3.2 -54.3,6.4 v 0 0 c -17.6,3.1 -35.3,6.2 -52.1,6.4 -0.9,0 -1.7,0 -2.6,0 -10.2,0 -19.8,-0.8 -28.1,-2.2 -6.5,-1.1 -13.1,-2.8 -19.8,-4.5 -11.800001,-3 -23.800001,-6.1 -35.500001,-6.1 h -15.8 z"
   id="path1" />
</svg>
