<?xml version="1.0" encoding="utf-8"?>
<!-- Generator: Adobe Illustrator 26.4.1, SVG Export Plug-In . SVG Version: 6.00 Build 0)  -->
<svg version="1.1" id="Layer_1" xmlns="http://www.w3.org/2000/svg" xmlns:xlink="http://www.w3.org/1999/xlink" x="0px" y="0px"
	 viewBox="0 0 841.9 595.3" style="enable-:new 0 0 841.9 595.3;" xml:space="preserve">
<style type="text/css">
	.st0{fill:#FFFFFF;}
</style>
<path class="st0" d="M155,108.1c-2.5,0-4.2-2.4-3.5-4.7c0.5-1.6,1.9-2.7,3.5-2.7h15.9c11.6,0,23.6-3.1,35.5-6.1
	c6.7-1.7,13.3-3.4,19.8-4.5c8.3-1.4,17.8-2.2,28.1-2.2c0.9,0,1.7,0,2.6,0c16.8,0.2,34.5,3.3,52.1,6.4c18.4,3.2,36.8,6.4,54.3,6.4
	H479c17.5,0,35.9-3.2,54.3-6.4c17.6-3.1,35.3-6.2,52.1-6.4c0.9,0,1.7,0,2.6,0c10.3,0,19.9,0.8,28.1,2.3c6.5,1.1,13.1,2.8,19.8,4.5
	c11.8,3,23.8,6.1,35.4,6.1h15.6c1.6,0,3.1,1.1,3.5,2.7c0.7,2.4-1.1,4.7-3.5,4.7h-15.6c-11.6,0-23.6,3.1-35.4,6.1
	c-6.7,1.7-13.3,3.4-19.8,4.5c-8.3,1.4-17.9,2.3-28.1,2.3c-0.9,0-1.7,0-2.6,0c-16.8-0.2-34.5-3.3-52.1-6.4
	c-18.4-3.2-36.7-6.4-54.3-6.4H363.2c-17.5,0-35.9,3.2-54.3,6.4c-17.6,3.1-35.3,6.2-52.1,6.4c-0.9,0-1.7,0-2.6,0
	c-10.2,0-19.8-0.8-28.1-2.2c-6.5-1.1-13.1-2.8-19.8-4.5c-11.8-3-23.8-6.1-35.5-6.1H155V108.1z M139,163.3c-2.4,0-4.2-2.4-3.5-4.7
	c0.5-1.6,1.9-2.7,3.5-2.7h31.9c11.6,0,23.6-3.1,35.5-6.1c6.7-1.7,13.3-3.4,19.8-4.5c8.3-1.4,17.8-2.2,28.1-2.2c0.9,0,1.7,0,2.6,0
	c16.8,0.2,34.5,3.3,52.1,6.4c18.4,3.2,36.8,6.4,54.3,6.4H479c17.5,0,35.9-3.2,54.3-6.4c17.6-3.1,35.3-6.2,52.1-6.4
	c0.9,0,1.7,0,2.6,0c10.3,0,19.9,0.8,28.1,2.3c6.5,1.1,13.1,2.8,19.8,4.5c11.8,3,23.8,6.1,35.4,6.1h31.6c1.6,0,3.1,1.1,3.5,2.7
	c0.7,2.4-1.1,4.7-3.5,4.7h-31.6c-11.6,0-23.6,3.1-35.4,6.1c-6.7,1.7-13.3,3.4-19.8,4.5c-8.3,1.4-17.9,2.3-28.1,2.3
	c-0.9,0-1.7,0-2.6,0c-16.8-0.2-34.5-3.3-52.1-6.4c-18.4-3.2-36.7-6.4-54.3-6.4H363.2c-17.5,0-35.9,3.2-54.3,6.4
	c-17.6,3.1-35.3,6.2-52.1,6.4c-0.9,0-1.7,0-2.6,0c-10.2,0-19.8-0.8-28.1-2.2c-6.5-1.1-13.1-2.8-19.8-4.5c-11.8-3-23.8-6.1-35.5-6.1
	H139V163.3z M123,218.5c-2.5,0-4.2-2.4-3.5-4.7c0.5-1.6,1.9-2.7,3.5-2.7h47.9c11.6,0,23.6-3.1,35.5-6.1l0,0
	c6.7-1.7,13.3-3.4,19.8-4.5c8.3-1.4,17.8-2.2,28.1-2.2c0.9,0,1.7,0,2.6,0c16.8,0.2,34.5,3.3,52.1,6.4c18.4,3.2,36.7,6.4,54.3,6.4
	H479c17.5,0,35.9-3.2,54.3-6.4c17.6-3.1,35.3-6.2,52.1-6.4c0.9,0,1.7,0,2.6,0c10.3,0,19.9,0.8,28.1,2.3c6.5,1.1,13.1,2.8,19.8,4.5
	c11.8,3,23.8,6.1,35.4,6.1h47.6c1.6,0,3.1,1.1,3.5,2.7c0.7,2.4-1.1,4.7-3.5,4.7h-47.6c-11.6,0-23.6,3.1-35.4,6.1
	c-6.7,1.7-13.3,3.4-19.8,4.5c-8.3,1.4-17.9,2.3-28.1,2.3c-0.9,0-1.7,0-2.6,0c-16.8-0.2-34.5-3.3-52.1-6.4
	c-18.4-3.2-36.7-6.4-54.3-6.4H363.2c-17.5,0-35.9,3.2-54.3,6.4c-17.6,3.1-35.3,6.2-52.1,6.4c-0.9,0-1.7,0-2.6,0
	c-10.2,0-19.8-0.8-28.1-2.2c-6.5-1.1-13.1-2.8-19.8-4.5c-11.8-3-23.8-6.1-35.5-6.1H123V218.5z M107,273.7c-2.5,0-4.2-2.4-3.5-4.7
	c0.5-1.6,1.9-2.7,3.5-2.7h49.3c9.1,0,18.2-1.5,27.1-3c0.7-0.1,1.5-0.2,2.2-0.4c33.6-5.6,111.4-9.5,235.4-9.5s201.8,3.9,235.4,9.5
	c0.7,0.1,1.4,0.2,2.2,0.4l0,0c9,1.5,18,3,27.1,3h49.1c1.6,0,3.1,1.1,3.5,2.7c0.7,2.4-1.1,4.7-3.5,4.7h-49.1c-9.1,0-18.2,1.5-27.1,3
	c-0.7,0.1-1.5,0.2-2.2,0.4c-33.6,5.6-111.4,9.5-235.4,9.5s-201.8-3.9-235.4-9.5c-0.7-0.1-1.5-0.2-2.2-0.4c-9-1.5-18-3-27.1-3H107z
	 M107,328.9c-1.6,0-3.1-1.1-3.5-2.7c-0.7-2.4,1.1-4.7,3.5-4.7h49.3c9.1,0,18.2-1.5,27.1-3l0,0c0.7-0.1,1.5-0.2,2.2-0.4
	c33.6-5.6,111.4-9.5,235.4-9.5s201.8,3.9,235.4,9.5c0.7,0.1,1.5,0.2,2.2,0.4c9,1.5,18,3,27.1,3h49.1c2.5,0,4.2,2.3,3.5,4.7
	c-0.5,1.6-1.9,2.7-3.5,2.7h-49.1c-9.1,0-18.2,1.5-27.1,3c-0.7,0.1-1.5,0.2-2.2,0.4c-33.6,5.6-111.4,9.5-235.4,9.5
	s-201.8-3.9-235.4-9.5c-0.7-0.1-1.5-0.2-2.2-0.4c-9-1.5-18-3-27.1-3H107z M123,384.1c-1.6,0-3.1-1.1-3.5-2.7
	c-0.7-2.4,1.1-4.7,3.5-4.7h47.9c11.6,0,23.6-3.1,35.5-6.1l0,0c6.7-1.7,13.3-3.4,19.8-4.5c8.3-1.4,17.8-2.2,28.1-2.2
	c0.9,0,1.7,0,2.6,0c16.8,0.2,34.5,3.3,52.1,6.4c18.4,3.2,36.8,6.4,54.3,6.4H479c17.5,0,35.9-3.2,54.3-6.4
	c17.6-3.1,35.3-6.2,52.1-6.4c0.9,0,1.7,0,2.6,0c10.3,0,19.9,0.8,28.1,2.3c6.5,1.1,13.1,2.8,19.8,4.5c11.8,3,23.8,6.1,35.4,6.1h47.6
	c2.5,0,4.2,2.3,3.5,4.7c-0.5,1.6-1.9,2.7-3.5,2.7h-47.6c-11.6,0-23.6,3.1-35.4,6.1c-6.7,1.7-13.3,3.4-19.8,4.5
	c-8.3,1.4-17.9,2.3-28.1,2.3c-0.9,0-1.7,0-2.6,0c-16.8-0.2-34.5-3.3-52.1-6.4c-18.4-3.2-36.7-6.4-54.3-6.4H363.2
	c-17.5,0-35.9,3.2-54.3,6.4c-17.6,3.1-35.3,6.2-52.1,6.4c-0.9,0-1.7,0-2.6,0c-10.2,0-19.8-0.8-28.1-2.2c-6.5-1.1-13.1-2.8-19.8-4.5
	c-11.8-3-23.8-6.1-35.5-6.1H123V384.1z M139,439.3c-1.6,0-3.1-1.1-3.5-2.7c-0.7-2.4,1.1-4.7,3.5-4.7h31.9c11.6,0,23.6-3.1,35.5-6.1
	l0,0c6.7-1.7,13.3-3.4,19.8-4.5c8.3-1.4,17.8-2.2,28.1-2.2c0.9,0,1.7,0,2.6,0c16.8,0.2,34.5,3.3,52.1,6.4
	c18.4,3.2,36.8,6.4,54.3,6.4H479c17.5,0,35.9-3.2,54.3-6.4c17.6-3.1,35.3-6.2,52.1-6.4c0.9,0,1.7,0,2.6,0c10.3,0,19.9,0.8,28.1,2.3
	c6.5,1.1,13.1,2.8,19.8,4.5c11.8,3,23.8,6.1,35.4,6.1h31.6c2.5,0,4.2,2.3,3.5,4.7c-0.5,1.6-1.9,2.7-3.5,2.7h-31.6
	c-11.6,0-23.6,3.1-35.4,6.1c-6.7,1.7-13.3,3.4-19.8,4.5c-8.3,1.4-17.9,2.3-28.1,2.3c-0.9,0-1.7,0-2.6,0c-16.8-0.2-34.5-3.3-52.1-6.4
	c-18.4-3.2-36.7-6.4-54.3-6.4H363.2c-17.5,0-35.9,3.2-54.3,6.4c-17.6,3.1-35.3,6.2-52.1,6.4c-0.9,0-1.7,0-2.6,0
	c-10.2,0-19.8-0.8-28.1-2.2c-6.5-1.1-13.1-2.8-19.8-4.5c-11.8-3-23.8-6.1-35.5-6.1H139V439.3z M155,494.5c-1.6,0-3.1-1.1-3.5-2.7
	c-0.7-2.4,1.1-4.7,3.5-4.7h15.9c11.6,0,23.6-3.1,35.5-6.1c6.7-1.7,13.3-3.4,19.8-4.5c8.3-1.4,17.8-2.2,28.1-2.2c0.9,0,1.7,0,2.6,0
	c16.8,0.2,34.5,3.3,52.1,6.4c18.4,3.2,36.7,6.4,54.3,6.4H479c17.5,0,35.9-3.2,54.3-6.4c17.6-3.1,35.3-6.2,52.1-6.4
	c0.9,0,1.7,0,2.6,0c10.3,0,19.9,0.8,28.1,2.3c6.5,1.1,13.1,2.8,19.8,4.5c11.8,3,23.8,6.1,35.4,6.1h15.6c2.4,0,4.2,2.3,3.5,4.7
	c-0.5,1.6-1.9,2.7-3.5,2.7h-15.6c-11.6,0-23.6,3.1-35.4,6.1c-6.7,1.7-13.3,3.4-19.8,4.5c-8.3,1.4-17.9,2.3-28.1,2.3
	c-0.9,0-1.7,0-2.6,0c-16.8-0.2-34.5-3.3-52.1-6.4c-18.4-3.2-36.7-6.4-54.3-6.4H363.2c-17.5,0-35.9,3.2-54.3,6.4l0,0l0,0
	c-17.6,3.1-35.3,6.2-52.1,6.4c-0.9,0-1.7,0-2.6,0c-10.2,0-19.8-0.8-28.1-2.2c-6.5-1.1-13.1-2.8-19.8-4.5c-11.8-3-23.8-6.1-35.5-6.1
	H155V494.5z"/>
</svg>
