<?xml version="1.0" encoding="utf-8"?>
<svg xmlns="http://www.w3.org/2000/svg" viewBox="84 207.8 673.9 179.7" width="673.9px" height="179.7px">
  <defs>
    <style type="text/css">
	.st0{fill:#8C704F;}
</style>
  </defs>
  <path class="st0" d="M240.8,309.2c0-2.1-1.7-3.9-3.9-3.9H126.4c-2.1,0-3.9,1.7-3.9,3.9v74.4c0,2.1-1.7,3.9-3.9,3.9H87.9 c-2.1,0-3.9-1.7-3.9-3.9V211.7c0-2.1,1.7-3.9,3.9-3.9h30.8c2.1,0,3.9,1.7,3.9,3.9v82c0,2.1,1.7,3.9,3.9,3.9h110.5 c2.1,0,3.9-1.7,3.9-3.9v-82c0-2.1,1.7-3.9,3.9-3.9h30.8c2.1,0,3.9,1.7,3.9,3.9v171.8c0,2.1-1.7,3.9-3.9,3.9h-30.8 c-2.1,0-3.9-1.7-3.9-3.9V309.2z M319,387.4c-2.1,0-3.9-1.7-3.9-3.9V211.7c0-2.1,1.7-3.9,3.9-3.9h30.8c2.1,0,3.9,1.7,3.9,3.9v171.8 c0,2.1-1.7,3.9-3.9,3.9H319z M388.5,387.4c-2.1,0-3.9-1.7-3.9-3.9V211.7c0-2.1,1.7-3.9,3.9-3.9h86.1c49.6,0,102.8,27.4,102.8,89.5 c-0.3,62.6-53.4,90-102.8,90H388.5z M423.2,375.9c0,2.1,1.7,3.9,3.9,3.9h34.7c43.2,0,77.1-26.2,77.1-82.1 c0-53.4-33.9-82.1-77.1-82.1h-34.7c-2.1,0-3.9,1.7-3.9,3.9V375.9z M757.9,383.6c0,2.1-1.7,3.8-3.8,3.8H599.1c-2.1,0-3.9-1.7-3.9-3.9 V211.7c0-2.1,1.7-3.9,3.9-3.9H754c2.1,0,3.8,1.7,3.8,3.8s-1.7,3.8-3.8,3.8H637.6c-2.1,0-3.9,1.7-3.9,3.9v74.4c0,2.1,1.7,3.9,3.9,3.9 h53.5c3.1,0,4.9,3.5,3.2,6.1c-0.7,1-1.9,1.6-3.2,1.6h-53.5c-2.1,0-3.9,1.7-3.9,3.9v66.7c0,2.1,1.7,3.9,3.9,3.9H754 C756.1,379.7,757.9,381.5,757.9,383.6z" transform="matrix(1, 0, 0, 1, 7.105427357601002e-15, 0)"/>
</svg>