<?xml version="1.0" encoding="utf-8"?>
<!-- Generator: Adobe Illustrator 26.4.1, SVG Export Plug-In . SVG Version: 6.00 Build 0)  -->
<svg version="1.1" id="Layer_1" xmlns="http://www.w3.org/2000/svg" xmlns:xlink="http://www.w3.org/1999/xlink" x="0px" y="0px"
	 viewBox="0 0 841.9 297.6" style="enable-background:new 0 0 841.9 297.6;" xml:space="preserve">
<style type="text/css">
	.st0{fill:#8A6F4F;}
	.st1{fill-rule:evenodd;clip-rule:evenodd;fill:#8A6F4F;}
</style>
<g>
	<path class="st0" d="M50.8,74.9c-1,0-1.6-0.9-1.4-1.8c0.2-0.6,0.7-1,1.4-1H57c4.5,0,9.2-1.2,13.8-2.4c2.6-0.7,5.2-1.3,7.7-1.8
		c3.2-0.6,7-0.9,11-0.9c0.3,0,0.7,0,1,0c6.6,0.1,13.4,1.3,20.3,2.5C118,70.8,125.2,72,132,72h45.1c6.8,0,14-1.3,21.2-2.5
		c6.9-1.2,13.8-2.4,20.3-2.5c0.3,0,0.7,0,1,0c4,0,7.8,0.3,11,0.9c2.5,0.4,5.1,1.1,7.7,1.8c4.6,1.2,9.3,2.4,13.8,2.4h6.1
		c0.6,0,1.2,0.4,1.4,1c0.3,0.9-0.4,1.8-1.4,1.8h-6.1c-4.5,0-9.2,1.2-13.8,2.4c-2.6,0.7-5.2,1.3-7.7,1.8c-3.2,0.6-7,0.9-11,0.9
		c-0.3,0-0.7,0-1,0c-6.6-0.1-13.4-1.3-20.3-2.5c-7.2-1.3-14.3-2.5-21.2-2.5H132c-6.8,0-14,1.3-21.2,2.5c-6.9,1.2-13.8,2.4-20.3,2.5
		c-0.3,0-0.7,0-1,0c-4,0-7.7-0.3-11-0.9c-2.5-0.4-5.1-1.1-7.7-1.8c-4.6-1.2-9.3-2.4-13.8-2.4H50.8z M44.6,96.4c-1,0-1.6-0.9-1.4-1.8
		c0.2-0.6,0.7-1,1.4-1H57c4.5,0,9.2-1.2,13.8-2.4c2.6-0.7,5.2-1.3,7.7-1.8c3.2-0.6,7-0.9,11-0.9c0.3,0,0.7,0,1,0
		c6.6,0.1,13.4,1.3,20.3,2.5c7.2,1.3,14.3,2.5,21.2,2.5h45.1c6.8,0,14-1.3,21.2-2.5c6.9-1.2,13.8-2.4,20.3-2.5c0.3,0,0.7,0,1,0
		c4,0,7.8,0.3,11,0.9c2.5,0.4,5.1,1.1,7.7,1.8c4.6,1.2,9.3,2.4,13.8,2.4h12.3c0.6,0,1.2,0.4,1.4,1c0.3,0.9-0.4,1.8-1.4,1.8h-12.3
		c-4.5,0-9.2,1.2-13.8,2.4c-2.6,0.7-5.2,1.3-7.7,1.8c-3.2,0.6-7,0.9-11,0.9c-0.3,0-0.7,0-1,0c-6.6-0.1-13.4-1.3-20.3-2.5
		c-7.2-1.3-14.3-2.5-21.2-2.5H132c-6.8,0-14,1.3-21.2,2.5c-6.9,1.2-13.8,2.4-20.3,2.5c-0.3,0-0.7,0-1,0c-4,0-7.7-0.3-11-0.9
		c-2.5-0.4-5.1-1.1-7.7-1.8c-4.6-1.2-9.3-2.4-13.8-2.4H44.6z M38.3,118c-1,0-1.6-0.9-1.4-1.8c0.2-0.6,0.7-1,1.4-1H57
		c4.5,0,9.2-1.2,13.8-2.4l0,0c2.6-0.7,5.2-1.3,7.7-1.8c3.2-0.6,7-0.9,11-0.9c0.3,0,0.7,0,1,0c6.6,0.1,13.4,1.3,20.3,2.5
		c7.2,1.3,14.3,2.5,21.2,2.5h45.1c6.8,0,14-1.3,21.2-2.5c6.9-1.2,13.8-2.4,20.3-2.5c0.3,0,0.7,0,1,0c4,0,7.8,0.3,11,0.9
		c2.5,0.4,5.1,1.1,7.7,1.8c4.6,1.2,9.3,2.4,13.8,2.4h18.5c0.6,0,1.2,0.4,1.4,1c0.3,0.9-0.4,1.8-1.4,1.8h-18.5
		c-4.5,0-9.2,1.2-13.8,2.4c-2.6,0.7-5.2,1.3-7.7,1.8c-3.2,0.6-7,0.9-11,0.9c-0.3,0-0.7,0-1,0c-6.6-0.1-13.4-1.3-20.3-2.5
		c-7.2-1.3-14.3-2.5-21.2-2.5H132c-6.8,0-14,1.3-21.2,2.5c-6.9,1.2-13.8,2.4-20.3,2.5c-0.3,0-0.7,0-1,0c-4,0-7.7-0.3-11-0.9
		c-2.5-0.4-5.1-1.1-7.7-1.8c-4.6-1.2-9.3-2.4-13.8-2.4H38.3z M32.1,139.5c-1,0-1.6-0.9-1.4-1.8c0.2-0.6,0.7-1,1.4-1h19.2
		c3.6,0,7.1-0.6,10.6-1.2c0.3,0,0.6-0.1,0.9-0.1c13.1-2.2,43.4-3.7,91.8-3.7s78.7,1.5,91.8,3.7c0.3,0,0.6,0.1,0.8,0.1l0,0
		c3.5,0.6,7,1.2,10.6,1.2h19.1c0.6,0,1.2,0.4,1.4,1c0.3,0.9-0.4,1.8-1.4,1.8h-19.1c-3.6,0-7.1,0.6-10.6,1.2c-0.3,0-0.6,0.1-0.9,0.1
		c-13.1,2.2-43.4,3.7-91.8,3.7s-78.7-1.5-91.8-3.7c-0.3,0-0.6-0.1-0.9-0.1c-3.5-0.6-7-1.2-10.6-1.2H32.1z M32.1,161
		c-0.6,0-1.2-0.4-1.4-1c-0.3-0.9,0.4-1.8,1.4-1.8h19.2c3.5,0,7.1-0.6,10.6-1.2h0c0.3,0,0.6-0.1,0.9-0.1c13.1-2.2,43.4-3.7,91.8-3.7
		s78.7,1.5,91.8,3.7c0.3,0,0.6,0.1,0.9,0.1c3.5,0.6,7,1.2,10.6,1.2h19.1c1,0,1.6,0.9,1.4,1.8c-0.2,0.6-0.7,1-1.4,1h-19.1
		c-3.6,0-7.1,0.6-10.6,1.2c-0.3,0-0.6,0.1-0.9,0.1c-13.1,2.2-43.4,3.7-91.8,3.7s-78.7-1.5-91.8-3.7c-0.3,0-0.6-0.1-0.9-0.1
		c-3.5-0.6-7-1.2-10.6-1.2H32.1z M38.3,182.5c-0.6,0-1.2-0.4-1.4-1c-0.3-0.9,0.4-1.8,1.4-1.8H57c4.5,0,9.2-1.2,13.8-2.4h0
		c2.6-0.7,5.2-1.3,7.7-1.8c3.2-0.6,7-0.9,11-0.9c0.3,0,0.7,0,1,0c6.6,0.1,13.4,1.3,20.3,2.5c7.2,1.3,14.3,2.5,21.2,2.5h45.1
		c6.8,0,14-1.3,21.2-2.5c6.9-1.2,13.8-2.4,20.3-2.5c0.3,0,0.7,0,1,0c4,0,7.8,0.3,11,0.9c2.5,0.4,5.1,1.1,7.7,1.8
		c4.6,1.2,9.3,2.4,13.8,2.4h18.5c1,0,1.6,0.9,1.4,1.8c-0.2,0.6-0.7,1-1.4,1h-18.5c-4.5,0-9.2,1.2-13.8,2.4c-2.6,0.7-5.2,1.3-7.7,1.8
		c-3.2,0.6-7,0.9-11,0.9c-0.3,0-0.7,0-1,0c-6.6-0.1-13.4-1.3-20.3-2.5c-7.2-1.3-14.3-2.5-21.2-2.5H132c-6.8,0-14,1.3-21.2,2.5
		c-6.9,1.2-13.8,2.4-20.3,2.5c-0.3,0-0.7,0-1,0c-4,0-7.7-0.3-11-0.9c-2.5-0.4-5.1-1.1-7.7-1.8c-4.6-1.2-9.3-2.4-13.8-2.4H38.3z
		 M44.6,204.1c-0.6,0-1.2-0.4-1.4-1c-0.3-0.9,0.4-1.8,1.4-1.8H57c4.5,0,9.2-1.2,13.8-2.4h0c2.6-0.7,5.2-1.3,7.7-1.8
		c3.2-0.6,7-0.9,11-0.9c0.3,0,0.7,0,1,0c6.6,0.1,13.4,1.3,20.3,2.5c7.2,1.3,14.3,2.5,21.2,2.5h45.1c6.8,0,14-1.3,21.2-2.5
		c6.9-1.2,13.8-2.4,20.3-2.5c0.3,0,0.7,0,1,0c4,0,7.8,0.3,11,0.9c2.5,0.4,5.1,1.1,7.7,1.8c4.6,1.2,9.3,2.4,13.8,2.4h12.3
		c1,0,1.6,0.9,1.4,1.8c-0.2,0.6-0.7,1-1.4,1h-12.3c-4.5,0-9.2,1.2-13.8,2.4c-2.6,0.7-5.2,1.3-7.7,1.8c-3.2,0.6-7,0.9-11,0.9
		c-0.3,0-0.7,0-1,0c-6.6-0.1-13.4-1.3-20.3-2.5c-7.2-1.3-14.3-2.5-21.2-2.5H132c-6.8,0-14,1.3-21.2,2.5c-6.9,1.2-13.8,2.4-20.3,2.5
		c-0.3,0-0.7,0-1,0c-4,0-7.7-0.3-11-0.9c-2.5-0.4-5.1-1.1-7.7-1.8c-4.6-1.2-9.3-2.4-13.8-2.4H44.6z M50.8,225.6
		c-0.6,0-1.2-0.4-1.4-1c-0.3-0.9,0.4-1.8,1.4-1.8H57c4.5,0,9.2-1.2,13.8-2.4c2.6-0.7,5.2-1.3,7.7-1.8c3.2-0.6,7-0.9,11-0.9
		c0.3,0,0.7,0,1,0c6.6,0.1,13.4,1.3,20.3,2.5c7.2,1.3,14.3,2.5,21.2,2.5h45.1c6.8,0,14-1.3,21.2-2.5c6.9-1.2,13.8-2.4,20.3-2.5
		c0.3,0,0.7,0,1,0c4,0,7.8,0.3,11,0.9c2.5,0.4,5.1,1.1,7.7,1.8c4.6,1.2,9.3,2.4,13.8,2.4h6.1c1,0,1.6,0.9,1.4,1.8
		c-0.2,0.6-0.7,1-1.4,1h-6.1c-4.5,0-9.2,1.2-13.8,2.4c-2.6,0.7-5.2,1.3-7.7,1.8c-3.2,0.6-7,0.9-11,0.9c-0.3,0-0.7,0-1,0
		c-6.6-0.1-13.4-1.3-20.3-2.5c-7.2-1.3-14.3-2.5-21.2-2.5H132c-6.8,0-14,1.3-21.2,2.5h0l0,0c-6.9,1.2-13.8,2.4-20.3,2.5
		c-0.3,0-0.7,0-1,0c-4,0-7.7-0.3-11-0.9c-2.5-0.4-5.1-1.1-7.7-1.8c-4.6-1.2-9.3-2.4-13.8-2.4H50.8z"/>
	<g>
		<path class="st0" d="M379.5,107.6c0-1-0.8-1.9-1.9-1.9h-43.1c-1,0-1.9,0.8-1.9,1.9v28.8c0,1-0.8,1.9-1.9,1.9h-11.5
			c-1,0-1.9-0.8-1.9-1.9V68.9c0-1,0.8-1.9,1.9-1.9h11.5c1,0,1.9,0.8,1.9,1.9v31.8c0,1,0.8,1.9,1.9,1.9h43.1c1,0,1.9-0.8,1.9-1.9
			V68.9c0-1,0.8-1.9,1.9-1.9h11.5c1,0,1.9,0.8,1.9,1.9v67.4c0,1-0.8,1.9-1.9,1.9h-11.5c-1,0-1.9-0.8-1.9-1.9V107.6z M410.9,138.3
			c-1,0-1.9-0.8-1.9-1.9V68.9c0-1,0.8-1.9,1.9-1.9h11.5c1,0,1.9,0.8,1.9,1.9v67.4c0,1-0.8,1.9-1.9,1.9H410.9z M438.5,138.3
			c-1,0-1.9-0.8-1.9-1.9V68.9c0-1,0.8-1.9,1.9-1.9h33.8c19.7,0,40.8,10.9,40.8,35.5c-0.1,24.8-21.2,35.7-40.8,35.7H438.5z
			 M451.9,133.3c0,1,0.8,1.9,1.9,1.9h13.4c17.1,0,30.6-10.4,30.6-32.6c0-21.2-13.5-32.6-30.6-32.6h-13.4c-1,0-1.9,0.8-1.9,1.9V133.3
			z M584.7,136.7c0,0.8-0.7,1.5-1.5,1.5H522c-1,0-1.9-0.8-1.9-1.9V68.9c0-1,0.8-1.9,1.9-1.9h61.1c0.8,0,1.5,0.7,1.5,1.5
			s-0.7,1.5-1.5,1.5h-45.8c-1,0-1.9,0.8-1.9,1.9v28.8c0,1,0.8,1.9,1.9,1.9h20.9c1.2,0,2,1.4,1.2,2.4c-0.3,0.4-0.8,0.7-1.2,0.7h-20.9
			c-1,0-1.9,0.8-1.9,1.9v25.7c0,1,0.8,1.9,1.9,1.9h45.8C584,135.2,584.7,135.9,584.7,136.7z"/>
		<path class="st1" d="M371.7,193.1c0.1-29.9,26.3-37.7,45.9-37.7c19.7,0,45.9,7.8,45.9,37.5c0,29.9-26.3,37.7-45.9,37.7
			C397.9,230.6,371.7,222.8,371.7,193.1z M386.9,193c-0.1,22.2,9.5,34.5,30.7,34.6c21.2,0.1,30.7-13.4,30.7-34.7
			c0-21.2-9.5-34.5-30.7-34.5S387,170.8,386.9,193z M332.6,223.8c0,1,0.8,1.8,1.8,1.8h39.9c0.8,0,1.5,0.7,1.5,1.5
			c0,0.8-0.7,1.5-1.5,1.5h-55.2c-1,0-1.8-0.8-1.8-1.8v-67.7c0-1,0.8-1.8,1.8-1.8h11.8c1,0,1.8,0.8,1.8,1.8V223.8z M551,228.6
			c1,0,1.8-0.8,1.8-1.8v-67.7c0-1-0.8-1.8-1.8-1.8h-11.8c-1,0-1.8,0.8-1.8,1.8v64.6c0,1-0.8,1.8-1.8,1.8h-21.5
			c-17.1,0-27.5-5.3-27.5-27.5v-38.9c0-1-0.8-1.8-1.8-1.8h-11.8c-1,0-1.8,0.8-1.8,1.8v38.9c0.1,24.7,23.3,30.5,42.8,30.5H551z
			 M722,214c0.1-0.3,0.2-0.5,0.2-0.8v-15.4c0-1-0.8-1.8-1.8-1.8h-17c-1.2,0-2-1.4-1.2-2.4c0.3-0.4,0.7-0.6,1.2-0.6h32.2
			c1,0,1.8,0.8,1.8,1.8v18.3c0,0.4-0.1,0.7-0.3,1c-9,12.2-27.7,16.5-41.4,16.5c-19.7,0-45.9-7.8-45.9-37.5
			c0.1-29.9,26.3-37.7,45.9-37.7c13.1,0,28.9,3.9,38.1,14.6c0.9,1.1,0.1,2.6-1.3,2.6h-9.3c-0.7,0-1.3-0.4-1.6-0.9
			c-4.8-8.5-13.2-13.3-26-13.3c-21.2,0-30.6,12.4-30.7,34.6c-0.1,22.2,9.5,34.5,30.7,34.6C708.6,227.7,717.2,222.6,722,214z
			 M642.7,226.8c0,1-0.8,1.8-1.8,1.8h-13.5c-0.6,0-1.2-0.3-1.5-0.8l-43.3-58.8c-1.1-1.5-3.5-0.7-3.5,1.1v56.8c0,1-0.8,1.8-1.8,1.8
			h-12.3c-1,0-1.8-0.8-1.8-1.8v-67.7c0-1,0.8-1.8,1.8-1.8H577c0.8,0,1.6,0.4,2.1,1l44.6,60.6c0.9,1.5,3.3,0.9,3.3-0.9v-58.9
			c0-1,0.8-1.8,1.8-1.8H641c1,0,1.8,0.8,1.8,1.8V226.8z M811.2,227.1c0,0.8-0.7,1.5-1.5,1.5h-61.3c-1,0-1.8-0.8-1.8-1.8v-67.7
			c0-1,0.8-1.8,1.8-1.8h61.3c0.8,0,1.5,0.7,1.5,1.5s-0.7,1.5-1.5,1.5h-46c-1,0-1.8,0.8-1.8,1.8v29c0,1,0.8,1.8,1.8,1.8h21
			c1.2,0,2,1.4,1.2,2.4c-0.3,0.4-0.8,0.6-1.2,0.6h-21c-1,0-1.8,0.8-1.8,1.8v26c0,1,0.8,1.8,1.8,1.8h46
			C810.5,225.5,811.2,226.2,811.2,227.1z"/>
	</g>
</g>
</svg>
