<?xml version="1.0" encoding="utf-8"?>
<!-- Generator: Adobe Illustrator 26.4.1, SVG Export Plug-In . SVG Version: 6.00 Build 0)  -->
<svg version="1.1" id="Layer_1" xmlns="http://www.w3.org/2000/svg" xmlns:xlink="http://www.w3.org/1999/xlink" x="0px" y="0px"
	 viewBox="0 0 841.9 148.8" style="enable-background:new 0 0 841.9 148.8;" xml:space="preserve">
<style type="text/css">
	.st0{fill:#8B704F;}
	.st1{fill-rule:evenodd;clip-rule:evenodd;fill:#8B704F;}
</style>
<g>
	<path class="st0" d="M66.3,30.7c-0.6,0-1-0.5-0.8-1.1c0.1-0.4,0.4-0.6,0.8-0.6H70c2.7,0,5.5-0.7,8.2-1.4c1.5-0.4,3.1-0.8,4.6-1
		c1.9-0.3,4.1-0.5,6.5-0.5c0.2,0,0.4,0,0.6,0c3.9,0.1,8,0.8,12,1.5c4.2,0.7,8.5,1.5,12.5,1.5h26.7c4,0,8.3-0.7,12.5-1.5
		c4.1-0.7,8.1-1.4,12-1.5c0.2,0,0.4,0,0.6,0c2.4,0,4.6,0.2,6.5,0.5c1.5,0.3,3,0.7,4.6,1c2.7,0.7,5.5,1.4,8.2,1.4h3.6
		c0.4,0,0.7,0.2,0.8,0.6c0.2,0.5-0.3,1.1-0.8,1.1h-3.6c-2.7,0-5.4,0.7-8.2,1.4c-1.5,0.4-3.1,0.8-4.6,1c-1.9,0.3-4.1,0.5-6.5,0.5
		c-0.2,0-0.4,0-0.6,0c-3.9-0.1-8-0.8-12-1.5c-4.2-0.7-8.5-1.5-12.5-1.5h-26.7c-4,0-8.3,0.7-12.5,1.5c-4.1,0.7-8.1,1.4-12,1.5
		c-0.2,0-0.4,0-0.6,0c-2.4,0-4.6-0.2-6.5-0.5c-1.5-0.3-3-0.7-4.6-1c-2.7-0.7-5.5-1.4-8.2-1.4H66.3z M62.6,43.4c-0.6,0-1-0.5-0.8-1.1
		c0.1-0.4,0.4-0.6,0.8-0.6H70c2.7,0,5.5-0.7,8.2-1.4c1.5-0.4,3.1-0.8,4.6-1c1.9-0.3,4.1-0.5,6.5-0.5c0.2,0,0.4,0,0.6,0
		c3.9,0.1,8,0.8,12,1.5c4.2,0.7,8.5,1.5,12.5,1.5h26.7c4,0,8.3-0.7,12.5-1.5c4.1-0.7,8.1-1.4,12-1.5c0.2,0,0.4,0,0.6,0
		c2.4,0,4.6,0.2,6.5,0.5c1.5,0.3,3,0.7,4.6,1c2.7,0.7,5.5,1.4,8.2,1.4h7.3c0.4,0,0.7,0.2,0.8,0.6c0.2,0.5-0.3,1.1-0.8,1.1h-7.3
		c-2.7,0-5.4,0.7-8.2,1.4c-1.5,0.4-3.1,0.8-4.6,1c-1.9,0.3-4.1,0.5-6.5,0.5c-0.2,0-0.4,0-0.6,0c-3.9-0.1-8-0.8-12-1.5
		c-4.2-0.7-8.5-1.5-12.5-1.5h-26.7c-4,0-8.3,0.7-12.5,1.5c-4.1,0.7-8.1,1.4-12,1.5c-0.2,0-0.4,0-0.6,0c-2.4,0-4.6-0.2-6.5-0.5
		c-1.5-0.3-3-0.7-4.6-1c-2.7-0.7-5.5-1.4-8.2-1.4H62.6z M59,56.2c-0.6,0-1-0.5-0.8-1.1c0.1-0.4,0.4-0.6,0.8-0.6h11
		c2.7,0,5.5-0.7,8.2-1.4l0,0c1.5-0.4,3.1-0.8,4.6-1c1.9-0.3,4.1-0.5,6.5-0.5c0.2,0,0.4,0,0.6,0c3.9,0.1,8,0.8,12,1.5
		c4.2,0.7,8.5,1.5,12.5,1.5h26.7c4,0,8.3-0.7,12.5-1.5c4.1-0.7,8.1-1.4,12-1.5c0.2,0,0.4,0,0.6,0c2.4,0,4.6,0.2,6.5,0.5
		c1.5,0.3,3,0.7,4.6,1c2.7,0.7,5.5,1.4,8.2,1.4h11c0.4,0,0.7,0.2,0.8,0.6c0.2,0.5-0.3,1.1-0.8,1.1h-11c-2.7,0-5.4,0.7-8.2,1.4
		c-1.5,0.4-3.1,0.8-4.6,1c-1.9,0.3-4.1,0.5-6.5,0.5c-0.2,0-0.4,0-0.6,0c-3.9-0.1-8-0.8-12-1.5c-4.2-0.7-8.5-1.5-12.5-1.5h-26.7
		c-4,0-8.3,0.7-12.5,1.5c-4.1,0.7-8.1,1.4-12,1.5c-0.2,0-0.4,0-0.6,0c-2.4,0-4.6-0.2-6.5-0.5c-1.5-0.3-3-0.7-4.6-1
		c-2.7-0.7-5.5-1.4-8.2-1.4H59z M55.3,68.9c-0.6,0-1-0.5-0.8-1.1c0.1-0.4,0.4-0.6,0.8-0.6h11.4c2.1,0,4.2-0.4,6.3-0.7
		c0.2,0,0.3-0.1,0.5-0.1c7.7-1.3,25.7-2.2,54.3-2.2s46.6,0.9,54.3,2.2c0.2,0,0.3,0.1,0.5,0.1l0,0c2.1,0.3,4.2,0.7,6.3,0.7h11.3
		c0.4,0,0.7,0.2,0.8,0.6c0.2,0.5-0.3,1.1-0.8,1.1h-11.3c-2.1,0-4.2,0.4-6.3,0.7c-0.2,0-0.3,0.1-0.5,0.1c-7.7,1.3-25.7,2.2-54.3,2.2
		S81.2,71,73.4,69.7c-0.2,0-0.3-0.1-0.5-0.1c-2.1-0.3-4.2-0.7-6.3-0.7H55.3z M55.3,81.6c-0.4,0-0.7-0.2-0.8-0.6
		c-0.2-0.5,0.3-1.1,0.8-1.1h11.4c2.1,0,4.2-0.4,6.3-0.7h0c0.2,0,0.3-0.1,0.5-0.1c7.7-1.3,25.7-2.2,54.3-2.2s46.6,0.9,54.3,2.2
		c0.2,0,0.3,0.1,0.5,0.1c2.1,0.3,4.2,0.7,6.3,0.7h11.3c0.6,0,1,0.5,0.8,1.1c-0.1,0.4-0.4,0.6-0.8,0.6h-11.3c-2.1,0-4.2,0.4-6.3,0.7
		c-0.2,0-0.3,0.1-0.5,0.1c-7.7,1.3-25.7,2.2-54.3,2.2s-46.6-0.9-54.3-2.2c-0.2,0-0.3-0.1-0.5-0.1c-2.1-0.3-4.2-0.7-6.3-0.7H55.3z
		 M59,94.4c-0.4,0-0.7-0.2-0.8-0.6c-0.2-0.5,0.3-1.1,0.8-1.1h11c2.7,0,5.5-0.7,8.2-1.4h0c1.5-0.4,3.1-0.8,4.6-1
		c1.9-0.3,4.1-0.5,6.5-0.5c0.2,0,0.4,0,0.6,0c3.9,0.1,8,0.8,12,1.5c4.2,0.7,8.5,1.5,12.5,1.5h26.7c4,0,8.3-0.7,12.5-1.5
		c4.1-0.7,8.1-1.4,12-1.5c0.2,0,0.4,0,0.6,0c2.4,0,4.6,0.2,6.5,0.5c1.5,0.3,3,0.7,4.6,1c2.7,0.7,5.5,1.4,8.2,1.4h11
		c0.6,0,1,0.5,0.8,1.1c-0.1,0.4-0.4,0.6-0.8,0.6h-11c-2.7,0-5.4,0.7-8.2,1.4c-1.5,0.4-3.1,0.8-4.6,1c-1.9,0.3-4.1,0.5-6.5,0.5
		c-0.2,0-0.4,0-0.6,0c-3.9-0.1-8-0.8-12-1.5c-4.2-0.7-8.5-1.5-12.5-1.5h-26.7c-4,0-8.3,0.7-12.5,1.5c-4.1,0.7-8.1,1.4-12,1.5
		c-0.2,0-0.4,0-0.6,0c-2.4,0-4.6-0.2-6.5-0.5c-1.5-0.3-3-0.7-4.6-1c-2.7-0.7-5.5-1.4-8.2-1.4H59z M62.6,107.1
		c-0.4,0-0.7-0.2-0.8-0.6c-0.2-0.5,0.3-1.1,0.8-1.1H70c2.7,0,5.5-0.7,8.2-1.4h0c1.5-0.4,3.1-0.8,4.6-1c1.9-0.3,4.1-0.5,6.5-0.5
		c0.2,0,0.4,0,0.6,0c3.9,0.1,8,0.8,12,1.5c4.2,0.7,8.5,1.5,12.5,1.5h26.7c4,0,8.3-0.7,12.5-1.5c4.1-0.7,8.1-1.4,12-1.5
		c0.2,0,0.4,0,0.6,0c2.4,0,4.6,0.2,6.5,0.5c1.5,0.3,3,0.7,4.6,1c2.7,0.7,5.5,1.4,8.2,1.4h7.3c0.6,0,1,0.5,0.8,1.1
		c-0.1,0.4-0.4,0.6-0.8,0.6h-7.3c-2.7,0-5.4,0.7-8.2,1.4c-1.5,0.4-3.1,0.8-4.6,1c-1.9,0.3-4.1,0.5-6.5,0.5c-0.2,0-0.4,0-0.6,0
		c-3.9-0.1-8-0.8-12-1.5c-4.2-0.7-8.5-1.5-12.5-1.5h-26.7c-4,0-8.3,0.7-12.5,1.5c-4.1,0.7-8.1,1.4-12,1.5c-0.2,0-0.4,0-0.6,0
		c-2.4,0-4.6-0.2-6.5-0.5c-1.5-0.3-3-0.7-4.6-1c-2.7-0.7-5.5-1.4-8.2-1.4H62.6z M66.3,119.8c-0.4,0-0.7-0.2-0.8-0.6
		c-0.2-0.5,0.3-1.1,0.8-1.1H70c2.7,0,5.5-0.7,8.2-1.4c1.5-0.4,3.1-0.8,4.6-1c1.9-0.3,4.1-0.5,6.5-0.5c0.2,0,0.4,0,0.6,0
		c3.9,0.1,8,0.8,12,1.5c4.2,0.7,8.5,1.5,12.5,1.5h26.7c4,0,8.3-0.7,12.5-1.5c4.1-0.7,8.1-1.4,12-1.5c0.2,0,0.4,0,0.6,0
		c2.4,0,4.6,0.2,6.5,0.5c1.5,0.3,3,0.7,4.6,1c2.7,0.7,5.5,1.4,8.2,1.4h3.6c0.6,0,1,0.5,0.8,1.1c-0.1,0.4-0.4,0.6-0.8,0.6h-3.6
		c-2.7,0-5.4,0.7-8.2,1.4c-1.5,0.4-3.1,0.8-4.6,1c-1.9,0.3-4.1,0.5-6.5,0.5c-0.2,0-0.4,0-0.6,0c-3.9-0.1-8-0.8-12-1.5
		c-4.2-0.7-8.5-1.5-12.5-1.5h-26.7c-4,0-8.3,0.7-12.5,1.5h0l0,0c-4.1,0.7-8.1,1.4-12,1.5c-0.2,0-0.4,0-0.6,0c-2.4,0-4.6-0.2-6.5-0.5
		c-1.5-0.3-3-0.7-4.6-1c-2.7-0.7-5.5-1.4-8.2-1.4H66.3z"/>
	<g>
		<path class="st0" d="M279,77.8c0-0.7-0.6-1.3-1.3-1.3h-29.5c-0.7,0-1.3,0.6-1.3,1.3v19.7c0,0.7-0.6,1.3-1.3,1.3h-7.9
			c-0.7,0-1.3-0.6-1.3-1.3V51.3c0-0.7,0.6-1.3,1.3-1.3h7.9c0.7,0,1.3,0.6,1.3,1.3v21.8c0,0.7,0.6,1.3,1.3,1.3h29.5
			c0.7,0,1.3-0.6,1.3-1.3V51.3c0-0.7,0.6-1.3,1.3-1.3h7.9c0.7,0,1.3,0.6,1.3,1.3v46.1c0,0.7-0.6,1.3-1.3,1.3h-7.9
			c-0.7,0-1.3-0.6-1.3-1.3V77.8z M300.5,98.8c-0.7,0-1.3-0.6-1.3-1.3V51.3c0-0.7,0.6-1.3,1.3-1.3h7.9c0.7,0,1.3,0.6,1.3,1.3v46.1
			c0,0.7-0.6,1.3-1.3,1.3H300.5z M319.4,98.8c-0.7,0-1.3-0.6-1.3-1.3V51.3c0-0.7,0.6-1.3,1.3-1.3h23.1c13.5,0,27.9,7.4,27.9,24.3
			c-0.1,17-14.5,24.4-27.9,24.4H319.4z M328.5,95.4c0,0.7,0.6,1.3,1.3,1.3h9.2c11.7,0,20.9-7.1,20.9-22.3c0-14.5-9.2-22.3-20.9-22.3
			h-9.2c-0.7,0-1.3,0.6-1.3,1.3V95.4z M419.4,97.7c0,0.6-0.5,1-1,1h-41.8c-0.7,0-1.3-0.6-1.3-1.3V51.3c0-0.7,0.6-1.3,1.3-1.3h41.8
			c0.6,0,1,0.5,1,1c0,0.6-0.5,1-1,1H387c-0.7,0-1.3,0.6-1.3,1.3v19.7c0,0.7,0.6,1.3,1.3,1.3h14.3c0.8,0,1.3,1,0.9,1.6
			c-0.2,0.3-0.5,0.4-0.9,0.4H387c-0.7,0-1.3,0.6-1.3,1.3v17.6c0,0.7,0.6,1.3,1.3,1.3h31.3C418.9,96.7,419.4,97.2,419.4,97.7z"/>
		<path class="st1" d="M486.8,74.5c0.1-20.5,18-25.8,31.4-25.8c13.5,0,31.4,5.4,31.4,25.7c0,20.5-18,25.8-31.4,25.8
			C504.7,100.2,486.8,94.8,486.8,74.5z M497.2,74.4c-0.1,15.2,6.5,23.6,21,23.7c14.5,0.1,21-9.2,21-23.7c0-14.5-6.5-23.6-21-23.6
			C503.7,50.7,497.3,59.2,497.2,74.4z M460.1,95.5c0,0.7,0.5,1.2,1.2,1.2h27.3c0.6,0,1,0.5,1,1c0,0.6-0.5,1-1,1h-37.7
			c-0.7,0-1.2-0.5-1.2-1.2V51.3c0-0.7,0.5-1.2,1.2-1.2h8.1c0.7,0,1.2,0.5,1.2,1.2V95.5z M609.4,98.8c0.7,0,1.2-0.5,1.2-1.2V51.3
			c0-0.7-0.5-1.2-1.2-1.2h-8.1c-0.7,0-1.2,0.5-1.2,1.2v44.2c0,0.7-0.5,1.2-1.2,1.2h-14.7c-11.7,0-18.8-3.6-18.8-18.8V51.3
			c0-0.7-0.5-1.2-1.2-1.2h-8.1c-0.7,0-1.2,0.5-1.2,1.2v26.6c0.1,16.9,15.9,20.9,29.3,20.9H609.4z M726.4,88.8
			c0.1-0.2,0.1-0.4,0.1-0.6V77.7c0-0.7-0.5-1.2-1.2-1.2h-11.6c-0.9,0-1.3-1-0.8-1.7c0.2-0.3,0.5-0.4,0.8-0.4h22.1
			c0.7,0,1.2,0.5,1.2,1.2v12.5c0,0.2-0.1,0.5-0.2,0.7c-6.2,8.3-18.9,11.3-28.3,11.3c-13.5,0-31.4-5.4-31.4-25.7
			c0.1-20.5,18-25.8,31.4-25.8c8.9,0,19.8,2.6,26.1,10c0.6,0.7,0.1,1.8-0.9,1.8h-6.3c-0.4,0-0.9-0.3-1.1-0.6
			c-3.3-5.8-9-9.1-17.8-9.1c-14.5,0-20.9,8.5-21,23.7c-0.1,15.2,6.5,23.6,21,23.7C717.3,98.1,723.2,94.7,726.4,88.8z M672.2,97.6
			c0,0.7-0.5,1.2-1.2,1.2h-9.3c-0.4,0-0.8-0.2-1-0.6L631.1,58c-0.8-1-2.4-0.5-2.4,0.8v38.8c0,0.7-0.5,1.2-1.2,1.2h-8.4
			c-0.7,0-1.2-0.5-1.2-1.2V51.3c0-0.7,0.5-1.2,1.2-1.2l8.1,0c0.6,0,1.1,0.3,1.4,0.7l30.5,41.4c0.6,1,2.2,0.6,2.2-0.6V51.3
			c0-0.7,0.5-1.2,1.2-1.2h8.4c0.7,0,1.2,0.5,1.2,1.2V97.6z M787.5,97.7c0,0.6-0.5,1-1,1h-41.9c-0.7,0-1.2-0.5-1.2-1.2V51.3
			c0-0.7,0.5-1.2,1.2-1.2h41.9c0.6,0,1,0.5,1,1c0,0.6-0.5,1-1,1H755c-0.7,0-1.2,0.5-1.2,1.2v19.9c0,0.7,0.5,1.2,1.2,1.2h14.4
			c0.8,0,1.3,1,0.9,1.6c-0.2,0.3-0.5,0.4-0.9,0.4H755c-0.7,0-1.2,0.5-1.2,1.2v17.8c0,0.7,0.5,1.2,1.2,1.2h31.5
			C787,96.7,787.5,97.2,787.5,97.7z"/>
	</g>
</g>
</svg>
