<?xml version="1.0" encoding="utf-8"?>
<!-- Generator: Adobe Illustrator 26.4.1, SVG Export Plug-In . SVG Version: 6.00 Build 0)  -->
<svg version="1.1" id="Layer_1" xmlns="http://www.w3.org/2000/svg" xmlns:xlink="http://www.w3.org/1999/xlink" x="0px" y="0px"
	 viewBox="0 0 841.9 595.3" style="enable-background:new 0 0 841.9 595.3;" xml:space="preserve">
<style type="text/css">
	.st0{fill:#8A6F4F;}
	.st1{fill-rule:evenodd;clip-rule:evenodd;fill:#8A6F4F;}
</style>
<path class="st0" d="M299.4,83.8c-1.1,0-1.9-1.1-1.6-2.1c0.2-0.7,0.9-1.2,1.6-1.2h7.3c5.3,0,10.8-1.4,16.2-2.8
	c3.1-0.8,6.1-1.6,9.1-2.1c3.8-0.7,8.2-1,12.8-1c0.4,0,0.8,0,1.2,0c7.7,0.1,15.7,1.5,23.8,2.9c8.4,1.5,16.8,2.9,24.8,2.9h52.9
	c8,0,16.4-1.5,24.8-2.9c8.1-1.4,16.1-2.8,23.8-2.9c0.4,0,0.8,0,1.2,0c4.7,0,9.1,0.4,12.9,1c3,0.5,6,1.3,9,2.1
	c5.4,1.4,10.9,2.8,16.2,2.8h7.1c0.7,0,1.4,0.5,1.6,1.2c0.3,1.1-0.5,2.1-1.6,2.1h-7.1c-5.3,0-10.8,1.4-16.2,2.8c-3,0.8-6.1,1.6-9,2.1
	c-3.8,0.7-8.2,1-12.9,1c-0.4,0-0.8,0-1.2,0c-7.7-0.1-15.7-1.5-23.8-2.9c-8.4-1.5-16.8-2.9-24.8-2.9h-52.9c-8,0-16.4,1.5-24.8,2.9
	c-8.1,1.4-16.1,2.8-23.8,2.9c-0.4,0-0.8,0-1.2,0c-4.7,0-9.1-0.4-12.8-1c-3-0.5-6-1.3-9.1-2.1c-5.4-1.4-10.9-2.8-16.2-2.8H299.4z
	 M292.1,109.1c-1.1,0-1.9-1.1-1.6-2.1c0.2-0.7,0.9-1.2,1.6-1.2h14.6c5.3,0,10.8-1.4,16.2-2.8c3.1-0.8,6.1-1.6,9.1-2.1
	c3.8-0.7,8.2-1,12.8-1c0.4,0,0.8,0,1.2,0c7.7,0.1,15.7,1.5,23.8,2.9c8.4,1.5,16.8,2.9,24.8,2.9h52.9c8,0,16.4-1.5,24.8-2.9
	c8.1-1.4,16.1-2.8,23.8-2.9c0.4,0,0.8,0,1.2,0c4.7,0,9.1,0.4,12.9,1c3,0.5,6,1.3,9,2.1c5.4,1.4,10.9,2.8,16.2,2.8h14.4
	c0.7,0,1.4,0.5,1.6,1.2c0.3,1.1-0.5,2.1-1.6,2.1h-14.4c-5.3,0-10.8,1.4-16.2,2.8c-3,0.8-6.1,1.6-9,2.1c-3.8,0.7-8.2,1-12.9,1
	c-0.4,0-0.8,0-1.2,0c-7.7-0.1-15.7-1.5-23.8-2.9c-8.4-1.5-16.8-2.9-24.8-2.9h-52.9c-8,0-16.4,1.5-24.8,2.9
	c-8.1,1.4-16.1,2.8-23.8,2.9c-0.4,0-0.8,0-1.2,0c-4.7,0-9.1-0.4-12.8-1c-3-0.5-6-1.3-9.1-2.1c-5.4-1.4-10.9-2.8-16.2-2.8H292.1z
	 M284.8,134.3c-1.1,0-1.9-1.1-1.6-2.1c0.2-0.7,0.9-1.2,1.6-1.2h21.9c5.3,0,10.8-1.4,16.2-2.8l0,0c3.1-0.8,6.1-1.6,9.1-2.1
	c3.8-0.7,8.2-1,12.8-1c0.4,0,0.8,0,1.2,0c7.7,0.1,15.7,1.5,23.8,2.9c8.4,1.5,16.8,2.9,24.8,2.9h52.9c8,0,16.4-1.5,24.8-2.9
	c8.1-1.4,16.1-2.8,23.8-2.9c0.4,0,0.8,0,1.2,0c4.7,0,9.1,0.4,12.9,1c3,0.5,6,1.3,9,2.1c5.4,1.4,10.9,2.8,16.2,2.8h21.7
	c0.7,0,1.4,0.5,1.6,1.2c0.3,1.1-0.5,2.1-1.6,2.1h-21.7c-5.3,0-10.8,1.4-16.2,2.8c-3,0.8-6.1,1.6-9,2.1c-3.8,0.7-8.2,1-12.9,1
	c-0.4,0-0.8,0-1.2,0c-7.7-0.1-15.7-1.5-23.8-2.9c-8.4-1.5-16.8-2.9-24.8-2.9h-52.9c-8,0-16.4,1.5-24.8,2.9
	c-8.1,1.4-16.1,2.8-23.8,2.9c-0.4,0-0.8,0-1.2,0c-4.7,0-9.1-0.4-12.8-1c-3-0.5-6-1.3-9.1-2.1c-5.4-1.4-10.9-2.8-16.2-2.8H284.8z
	 M277.5,159.5c-1.1,0-1.9-1.1-1.6-2.1c0.2-0.7,0.9-1.2,1.6-1.2H300c4.2,0,8.3-0.7,12.4-1.4c0.3-0.1,0.7-0.1,1-0.2
	c15.3-2.6,50.9-4.3,107.6-4.3s92.2,1.8,107.6,4.3c0.3,0.1,0.7,0.1,1,0.2l0,0c4.1,0.7,8.2,1.4,12.4,1.4h22.4c0.7,0,1.4,0.5,1.6,1.2
	c0.3,1.1-0.5,2.1-1.6,2.1h-22.4c-4.2,0-8.3,0.7-12.4,1.4c-0.3,0.1-0.7,0.1-1,0.2c-15.3,2.6-50.9,4.3-107.6,4.3s-92.2-1.8-107.6-4.3
	c-0.3-0.1-0.7-0.1-1-0.2c-4.1-0.7-8.2-1.4-12.4-1.4H277.5z M277.5,184.7c-0.7,0-1.4-0.5-1.6-1.2c-0.3-1.1,0.5-2.1,1.6-2.1H300
	c4.2,0,8.3-0.7,12.4-1.4h0c0.3-0.1,0.7-0.1,1-0.2c15.3-2.6,50.9-4.3,107.6-4.3s92.2,1.8,107.6,4.3c0.3,0.1,0.7,0.1,1,0.2
	c4.1,0.7,8.2,1.4,12.4,1.4h22.4c1.1,0,1.9,1.1,1.6,2.1c-0.2,0.7-0.9,1.2-1.6,1.2h-22.4c-4.2,0-8.3,0.7-12.4,1.4
	c-0.3,0.1-0.7,0.1-1,0.2c-15.3,2.6-50.9,4.3-107.6,4.3s-92.2-1.8-107.6-4.3c-0.3-0.1-0.7-0.1-1-0.2c-4.1-0.7-8.2-1.4-12.4-1.4H277.5
	z M284.8,210c-0.7,0-1.4-0.5-1.6-1.2c-0.3-1.1,0.5-2.1,1.6-2.1h21.9c5.3,0,10.8-1.4,16.2-2.8h0c3.1-0.8,6.1-1.6,9.1-2.1
	c3.8-0.7,8.2-1,12.8-1c0.4,0,0.8,0,1.2,0c7.7,0.1,15.7,1.5,23.8,2.9c8.4,1.5,16.8,2.9,24.8,2.9h52.9c8,0,16.4-1.5,24.8-2.9
	c8.1-1.4,16.1-2.8,23.8-2.9c0.4,0,0.8,0,1.2,0c4.7,0,9.1,0.4,12.9,1c3,0.5,6,1.3,9,2.1c5.4,1.4,10.9,2.8,16.2,2.8h21.7
	c1.1,0,1.9,1.1,1.6,2.1c-0.2,0.7-0.9,1.2-1.6,1.2h-21.7c-5.3,0-10.8,1.4-16.2,2.8c-3,0.8-6.1,1.6-9,2.1c-3.8,0.7-8.2,1-12.9,1
	c-0.4,0-0.8,0-1.2,0c-7.7-0.1-15.7-1.5-23.8-2.9c-8.4-1.5-16.8-2.9-24.8-2.9h-52.9c-8,0-16.4,1.5-24.8,2.9
	c-8.1,1.4-16.1,2.8-23.8,2.9c-0.4,0-0.8,0-1.2,0c-4.7,0-9.1-0.4-12.8-1c-3-0.5-6-1.3-9.1-2.1c-5.4-1.4-10.9-2.8-16.2-2.8H284.8z
	 M292.1,235.2c-0.7,0-1.4-0.5-1.6-1.2c-0.3-1.1,0.5-2.1,1.6-2.1h14.6c5.3,0,10.8-1.4,16.2-2.8h0c3.1-0.8,6.1-1.6,9.1-2.1
	c3.8-0.7,8.2-1,12.8-1c0.4,0,0.8,0,1.2,0c7.7,0.1,15.7,1.5,23.8,2.9c8.4,1.5,16.8,2.9,24.8,2.9h52.9c8,0,16.4-1.5,24.8-2.9
	c8.1-1.4,16.1-2.8,23.8-2.9c0.4,0,0.8,0,1.2,0c4.7,0,9.1,0.4,12.9,1c3,0.5,6,1.3,9,2.1c5.4,1.4,10.9,2.8,16.2,2.8h14.4
	c1.1,0,1.9,1.1,1.6,2.1c-0.2,0.7-0.9,1.2-1.6,1.2h-14.4c-5.3,0-10.8,1.4-16.2,2.8c-3,0.8-6.1,1.6-9,2.1c-3.8,0.7-8.2,1-12.9,1
	c-0.4,0-0.8,0-1.2,0c-7.7-0.1-15.7-1.5-23.8-2.9c-8.4-1.5-16.8-2.9-24.8-2.9h-52.9c-8,0-16.4,1.5-24.8,2.9
	c-8.1,1.4-16.1,2.8-23.8,2.9c-0.4,0-0.8,0-1.2,0c-4.7,0-9.1-0.4-12.8-1c-3-0.5-6-1.3-9.1-2.1c-5.4-1.4-10.9-2.8-16.2-2.8H292.1z
	 M299.4,260.4c-0.7,0-1.4-0.5-1.6-1.2c-0.3-1.1,0.5-2.1,1.6-2.1h7.3c5.3,0,10.8-1.4,16.2-2.8c3.1-0.8,6.1-1.6,9.1-2.1
	c3.8-0.7,8.2-1,12.8-1c0.4,0,0.8,0,1.2,0c7.7,0.1,15.7,1.5,23.8,2.9c8.4,1.5,16.8,2.9,24.8,2.9h52.9c8,0,16.4-1.5,24.8-2.9
	c8.1-1.4,16.1-2.8,23.8-2.9c0.4,0,0.8,0,1.2,0c4.7,0,9.1,0.4,12.9,1c3,0.5,6,1.3,9,2.1c5.4,1.4,10.9,2.8,16.2,2.8h7.1
	c1.1,0,1.9,1.1,1.6,2.1c-0.2,0.7-0.9,1.2-1.6,1.2h-7.1c-5.3,0-10.8,1.4-16.2,2.8c-3,0.8-6.1,1.6-9,2.1c-3.8,0.7-8.2,1-12.9,1
	c-0.4,0-0.8,0-1.2,0c-7.7-0.1-15.7-1.5-23.8-2.9c-8.4-1.5-16.8-2.9-24.8-2.9h-52.9c-8,0-16.4,1.5-24.8,2.9h0l0,0
	c-8.1,1.4-16.1,2.8-23.8,2.9c-0.4,0-0.8,0-1.2,0c-4.7,0-9.1-0.4-12.8-1c-3-0.5-6-1.3-9.1-2.1c-5.4-1.4-10.9-2.8-16.2-2.8H299.4z"/>
<g>
	<path class="st0" d="M335.6,378.8c0-1.3-1-2.3-2.3-2.3h-51.4c-1.3,0-2.3,1-2.3,2.3v34.3c0,1.3-1,2.3-2.3,2.3h-13.7
		c-1.3,0-2.3-1-2.3-2.3v-80.5c0-1.3,1-2.3,2.3-2.3h13.7c1.3,0,2.3,1,2.3,2.3v38c0,1.3,1,2.3,2.3,2.3h51.4c1.3,0,2.3-1,2.3-2.3v-38
		c0-1.3,1-2.3,2.3-2.3h13.7c1.3,0,2.3,1,2.3,2.3v80.5c0,1.3-1,2.3-2.3,2.3h-13.7c-1.3,0-2.3-1-2.3-2.3V378.8z M373.1,415.4
		c-1.3,0-2.3-1-2.3-2.3v-80.5c0-1.3,1-2.3,2.3-2.3h13.7c1.3,0,2.3,1,2.3,2.3v80.5c0,1.3-1,2.3-2.3,2.3H373.1z M406,415.4
		c-1.3,0-2.3-1-2.3-2.3v-80.5c0-1.3,1-2.3,2.3-2.3h40.3c23.5,0,48.7,13,48.7,42.4c-0.1,29.6-25.3,42.6-48.7,42.6H406z M422,409.5
		c0,1.3,1,2.3,2.3,2.3h16c20.4,0,36.5-12.4,36.5-38.9c0-25.3-16.1-38.9-36.5-38.9h-16c-1.3,0-2.3,1-2.3,2.3V409.5z M580.5,413.6
		c0,1-0.8,1.8-1.8,1.8h-72.9c-1.3,0-2.3-1-2.3-2.3v-80.5c0-1.3,1-2.3,2.3-2.3h72.9c1,0,1.8,0.8,1.8,1.8c0,1-0.8,1.8-1.8,1.8H524
		c-1.3,0-2.3,1-2.3,2.3v34.3c0,1.3,1,2.3,2.3,2.3h24.9c1.5,0,2.3,1.7,1.5,2.9c-0.3,0.5-0.9,0.8-1.5,0.8H524c-1.3,0-2.3,1-2.3,2.3
		v30.7c0,1.3,1,2.3,2.3,2.3h54.7C579.7,411.8,580.5,412.6,580.5,413.6z"/>
	<path class="st1" d="M191.1,475.9c0.1-35.7,31.4-45.1,54.8-45.1c23.5,0,54.8,9.4,54.8,44.8c0,35.7-31.4,45.1-54.8,45.1
		C222.4,520.7,191.1,511.3,191.1,475.9z M209.2,475.7c-0.1,26.5,11.3,41.2,36.6,41.3c25.3,0.1,36.6-16,36.6-41.4
		c0-25.3-11.3-41.2-36.6-41.2S209.4,449.3,209.2,475.7z M144.5,512.5c0,1.2,0.9,2.1,2.1,2.1h47.6c1,0,1.8,0.8,1.8,1.8
		c0,1-0.8,1.8-1.8,1.8h-65.8c-1.2,0-2.1-0.9-2.1-2.1v-80.8c0-1.2,0.9-2.1,2.1-2.1h14.1c1.2,0,2.1,0.9,2.1,2.1V512.5z M405.1,518.2
		c1.2,0,2.1-0.9,2.1-2.1v-80.8c0-1.2-0.9-2.1-2.1-2.1H391c-1.2,0-2.1,0.9-2.1,2.1v77.2c0,1.2-0.9,2.1-2.1,2.1h-25.7
		c-20.4,0-32.9-6.3-32.9-32.8v-46.5c0-1.2-0.9-2.1-2.1-2.1h-14.1c-1.2,0-2.1,0.9-2.1,2.1v46.5c0.1,29.5,27.8,36.4,51.1,36.4H405.1z
		 M609.1,500.9c0.2-0.3,0.2-0.6,0.2-1v-18.4c0-1.2-0.9-2.1-2.1-2.1h-20.2c-1.5,0-2.3-1.7-1.5-2.9c0.3-0.5,0.9-0.7,1.5-0.7h38.5
		c1.2,0,2.1,0.9,2.1,2.1v21.9c0,0.4-0.1,0.9-0.4,1.2c-10.7,14.5-33,19.7-49.4,19.7c-23.5,0-54.8-9.4-54.8-44.8
		c0.1-35.7,31.4-45.1,54.8-45.1c15.6,0,34.5,4.6,45.5,17.5c1.1,1.3,0.1,3.2-1.6,3.2h-11.1c-0.8,0-1.5-0.4-1.9-1.1
		c-5.7-10.1-15.8-15.9-31-15.9c-25.3,0-36.5,14.8-36.6,41.3c-0.1,26.5,11.3,41.2,36.6,41.3C593.2,517.2,603.5,511.1,609.1,500.9z
		 M514.6,516.1c0,1.2-0.9,2.1-2.1,2.1h-16.1c-0.7,0-1.4-0.4-1.8-1l-51.7-70.2c-1.3-1.8-4.1-0.8-4.1,1.4v67.7c0,1.2-0.9,2.1-2.1,2.1
		h-14.7c-1.2,0-2.1-0.9-2.1-2.1v-80.8c0-1.2,0.9-2.1,2.1-2.1h14.2c1,0,1.9,0.5,2.5,1.2l53.3,72.3c1.1,1.8,3.9,1,3.9-1.1v-70.4
		c0-1.2,0.9-2.1,2.1-2.1h14.7c1.2,0,2.1,0.9,2.1,2.1V516.1z M715.7,516.4c0,1-0.8,1.8-1.8,1.8h-73.1c-1.2,0-2.1-0.9-2.1-2.1v-80.8
		c0-1.2,0.9-2.1,2.1-2.1h73.1c1,0,1.8,0.8,1.8,1.8s-0.8,1.8-1.8,1.8H659c-1.2,0-2.1,0.9-2.1,2.1v34.7c0,1.2,0.9,2.1,2.1,2.1h25.1
		c1.5,0,2.3,1.7,1.5,2.9c-0.3,0.5-0.9,0.8-1.5,0.8H659c-1.2,0-2.1,0.9-2.1,2.1v31c0,1.2,0.9,2.1,2.1,2.1h54.9
		C714.9,514.6,715.7,515.4,715.7,516.4z"/>
</g>
</svg>
